<svg width="573" height="64" viewBox="0 0 573 64" fill="none" xmlns="http://www.w3.org/2000/svg">
<path d="M22.2517 25.3281H39.8298V14.166H22.2517V25.3281ZM4.67358 64V0.982422H48.531C54.3025 1.24609 57.2615 4.19043 57.408 9.81543V21.0215C57.3787 26.8516 55.7087 30.5137 52.3982 32.0078C55.7087 33.502 57.3787 35.6113 57.408 38.3359V55.2109C57.2615 60.7773 54.3757 63.707 48.7507 64H4.67358ZM39.8298 50.8164V38.5117H22.2517V50.8164H39.8298ZM75.197 0.982422H92.7751V64H75.197V0.982422ZM145.72 28.8438V14.21L128.142 14.166V28.8438H145.72ZM128.142 42.0273V64H110.564V0.982422H154.466C160.091 1.30469 163.035 4.21973 163.299 9.72754V33.1504C162.918 39.3027 159.051 42.2617 151.697 42.0273L163.386 64H145.281L132.669 42.0273H128.142ZM181.088 0.982422H229.427V14.21H214.091V64H196.425V14.21H181.088V0.982422ZM282.373 33.2383V14.166H264.795V33.2383H282.373ZM264.795 46.4219V64H247.217V9.5957C247.422 4.11719 250.381 1.24609 256.094 0.982422H291.162C296.816 1.1875 299.746 4.10254 299.951 9.72754V64H282.373V46.4219H264.795ZM317.74 9.63965C318.004 4.10254 320.948 1.2168 326.573 0.982422H361.685C367.398 1.2168 370.328 4.17578 370.474 9.85938V24.4053H352.896V14.21H335.318V50.8164H352.896V39.6543H370.474V55.2549C370.328 60.792 367.384 63.707 361.641 64H326.529C320.933 63.8242 318.004 60.8945 317.74 55.2109V9.63965ZM388.263 0.982422H405.842V64H388.263V0.982422ZM423.631 0.982422H471.97V14.21H456.634V64H438.968V14.21H423.631V0.982422ZM489.76 0.982422H507.338V28.8438H524.916V0.982422H542.494V33.3262C542.289 38.8633 539.344 41.7637 533.661 42.0273H524.916V64H507.338V42.0273H498.461C492.836 41.7637 489.935 38.8486 489.76 33.2822V0.982422Z" fill="#055D59"/>
</svg>
