<svg width="25" height="25" viewBox="0 0 25 25" fill="none" xmlns="http://www.w3.org/2000/svg">
<path d="M12.5 21.975C15.1522 21.975 17.6957 20.9461 19.5711 19.1145C21.4464 17.2828 22.5 14.7986 22.5 12.2084C22.5 9.61807 21.4464 7.13388 19.5711 5.30227C17.6957 3.47066 15.1522 2.44167 12.5 2.44167C9.84783 2.44167 7.3043 3.47066 5.42893 5.30227C3.55357 7.13388 2.5 9.61807 2.5 12.2084C2.5 14.7986 3.55357 17.2828 5.42893 19.1145C7.3043 20.9461 9.84783 21.975 12.5 21.975ZM12.5 0C14.1415 0 15.767 0.315779 17.2835 0.929306C18.8001 1.54283 20.1781 2.4421 21.3388 3.57575C22.4996 4.7094 23.4203 6.05524 24.0485 7.53642C24.6767 9.01761 25 10.6051 25 12.2084C25 15.4462 23.683 18.5515 21.3388 20.841C18.9946 23.1305 15.8152 24.4167 12.5 24.4167C5.5875 24.4167 0 18.923 0 12.2084C0 8.9705 1.31696 5.86526 3.66117 3.57575C6.00537 1.28623 9.18479 0 12.5 0ZM13.125 6.10418V12.5136L18.75 15.7732L17.8125 17.2748L11.25 13.4292V6.10418H13.125Z" fill="#055D59"/>
</svg>
