<svg width="23" height="24" viewBox="0 0 23 24" fill="none" xmlns="http://www.w3.org/2000/svg">
<mask id="path-1-inside-1_295_1132" fill="white">
<path d="M22.3215 11.239L11.9715 0.680444C11.5403 0.244114 10.9574 -0.000493701 10.35 7.4815e-07H2.3C1.69 7.4815e-07 1.10499 0.247205 0.673655 0.687232C0.242321 1.12726 7.2212e-07 1.72406 7.2212e-07 2.34636V10.5586C-0.000239765 10.8682 0.0595892 11.1748 0.176039 11.4607C0.292489 11.7467 0.463257 12.0062 0.678501 12.2245L11.0285 22.7831C11.4597 23.2194 12.0426 23.464 12.65 23.4636C13.259 23.4609 13.8421 23.212 14.2715 22.7714L22.3215 14.5591C22.7534 14.1211 22.9974 13.5262 23 12.905C23.0002 12.5953 22.9404 12.2887 22.824 12.0028C22.7075 11.7169 22.5367 11.4573 22.3215 11.239ZM12.65 21.1172L2.3 10.5586V2.34636H10.35L20.7 12.905M5.175 3.51953C5.51617 3.51953 5.84968 3.62274 6.13336 3.81611C6.41703 4.00947 6.63813 4.28431 6.76869 4.60587C6.89925 4.92742 6.93341 5.28125 6.86685 5.62261C6.80029 5.96397 6.636 6.27753 6.39476 6.52364C6.15351 6.76975 5.84615 6.93735 5.51153 7.00525C5.17691 7.07315 4.83007 7.0383 4.51487 6.90511C4.19967 6.77192 3.93026 6.54637 3.74072 6.25697C3.55117 5.96758 3.45 5.62735 3.45 5.2793C3.45 4.81258 3.63174 4.36498 3.95524 4.03496C4.27874 3.70494 4.7175 3.51953 5.175 3.51953Z"/>
</mask>
<path d="M22.3215 11.239L11.9715 0.680444C11.5403 0.244114 10.9574 -0.000493701 10.35 7.4815e-07H2.3C1.69 7.4815e-07 1.10499 0.247205 0.673655 0.687232C0.242321 1.12726 7.2212e-07 1.72406 7.2212e-07 2.34636V10.5586C-0.000239765 10.8682 0.0595892 11.1748 0.176039 11.4607C0.292489 11.7467 0.463257 12.0062 0.678501 12.2245L11.0285 22.7831C11.4597 23.2194 12.0426 23.464 12.65 23.4636C13.259 23.4609 13.8421 23.212 14.2715 22.7714L22.3215 14.5591C22.7534 14.1211 22.9974 13.5262 23 12.905C23.0002 12.5953 22.9404 12.2887 22.824 12.0028C22.7075 11.7169 22.5367 11.4573 22.3215 11.239ZM12.65 21.1172L2.3 10.5586V2.34636H10.35L20.7 12.905M5.175 3.51953C5.51617 3.51953 5.84968 3.62274 6.13336 3.81611C6.41703 4.00947 6.63813 4.28431 6.76869 4.60587C6.89925 4.92742 6.93341 5.28125 6.86685 5.62261C6.80029 5.96397 6.636 6.27753 6.39476 6.52364C6.15351 6.76975 5.84615 6.93735 5.51153 7.00525C5.17691 7.07315 4.83007 7.0383 4.51487 6.90511C4.19967 6.77192 3.93026 6.54637 3.74072 6.25697C3.55117 5.96758 3.45 5.62735 3.45 5.2793C3.45 4.81258 3.63174 4.36498 3.95524 4.03496C4.27874 3.70494 4.7175 3.51953 5.175 3.51953Z" fill="#055D59"/>
<path d="M22.3215 11.239L21.6074 11.9391L21.6095 11.9412L22.3215 11.239ZM11.9715 0.680444L12.6856 -0.0195795L12.6827 -0.022495L11.9715 0.680444ZM10.35 7.4815e-07V1L10.3508 1L10.35 7.4815e-07ZM2.3 7.4815e-07V-0.999999V7.4815e-07ZM7.2212e-07 2.34636H-0.999999H7.2212e-07ZM7.2212e-07 10.5586L1 10.5594V10.5586H7.2212e-07ZM0.678501 12.2245L1.39263 11.5245L1.39054 11.5224L0.678501 12.2245ZM11.0285 22.7831L10.3144 23.4831L10.3172 23.486L11.0285 22.7831ZM12.65 23.4636L12.6508 24.4636L12.6543 24.4635L12.65 23.4636ZM14.2715 22.7714L13.5574 22.0714L13.5553 22.0735L14.2715 22.7714ZM22.3215 14.5591L21.6095 13.857L21.6074 13.8591L22.3215 14.5591ZM23 12.905L24 12.9091L24 12.9057L23 12.905ZM2.3 10.5586H1.3V10.967L1.58587 11.2586L2.3 10.5586ZM2.3 2.34636V1.34636H1.3V2.34636H2.3ZM10.35 2.34636L11.0641 1.64634L10.7701 1.34636H10.35V2.34636ZM5.175 3.51953V4.51953V3.51953ZM3.45 5.2793H2.45H3.45ZM22.3215 11.239L23.0356 10.539L12.6856 -0.0195736L11.9715 0.680444L11.2574 1.38046L21.6074 11.9391L22.3215 11.239ZM11.9715 0.680444L12.6827 -0.022495C12.0656 -0.646956 11.2271 -1.00071 10.3492 -0.999999L10.35 7.4815e-07L10.3508 1C10.6876 0.999726 11.015 1.13519 11.2602 1.38338L11.9715 0.680444ZM10.35 7.4815e-07V-0.999999H2.3V7.4815e-07V1H10.35V7.4815e-07ZM2.3 7.4815e-07V-0.999999C1.41827 -0.999999 0.576792 -0.642489 -0.0404709 -0.0127851L0.673655 0.687232L1.38778 1.38725C1.63318 1.1369 1.96173 1 2.3 1V7.4815e-07ZM0.673655 0.687232L-0.0404709 -0.0127851C-0.65707 0.616242 -0.999999 1.46521 -0.999999 2.34636H7.2212e-07H1C1 1.98291 1.14171 1.63828 1.38778 1.38725L0.673655 0.687232ZM7.2212e-07 2.34636H-0.999999V10.5586H7.2212e-07H1V2.34636H7.2212e-07ZM7.2212e-07 10.5586L-0.999999 10.5578C-1.00034 10.9966 -0.915568 11.4316 -0.750093 11.8379L0.176039 11.4607L1.10217 11.0835C1.03475 10.918 0.99986 10.7398 1 10.5594L7.2212e-07 10.5586ZM0.176039 11.4607L-0.750093 11.8379C-0.584604 12.2443 -0.341403 12.6144 -0.0335396 12.9267L0.678501 12.2245L1.39054 11.5224C1.26792 11.398 1.16958 11.249 1.10217 11.0835L0.176039 11.4607ZM0.678501 12.2245L-0.0356252 12.9245L10.3144 23.4831L11.0285 22.7831L11.7426 22.0831L1.39263 11.5245L0.678501 12.2245ZM11.0285 22.7831L10.3172 23.486C10.9344 24.1105 11.7729 24.4643 12.6508 24.4636L12.65 23.4636L12.6492 22.4636C12.3124 22.4638 11.985 22.3284 11.7397 22.0802L11.0285 22.7831ZM12.65 23.4636L12.6543 24.4635C13.5346 24.4598 14.3733 24.0998 14.9877 23.4693L14.2715 22.7714L13.5553 22.0735C13.311 22.3242 12.9834 22.4621 12.6457 22.4636L12.65 23.4636ZM14.2715 22.7714L14.9856 23.4714L23.0356 15.2592L22.3215 14.5591L21.6074 13.8591L13.5574 22.0714L14.2715 22.7714ZM22.3215 14.5591L23.0335 15.2613C23.651 14.6351 23.9964 13.7888 24 12.9091L23 12.905L22 12.9008C21.9985 13.2637 21.8558 13.6072 21.6095 13.857L22.3215 14.5591ZM23 12.905L24 12.9057C24.0003 12.4669 23.9156 12.0319 23.7501 11.6256L22.824 12.0028L21.8978 12.38C21.9653 12.5456 22.0001 12.7238 22 12.9042L23 12.905ZM22.824 12.0028L23.7501 11.6256C23.5846 11.2193 23.3414 10.8491 23.0335 10.5369L22.3215 11.239L21.6095 11.9412C21.7321 12.0655 21.8304 12.2145 21.8978 12.38L22.824 12.0028ZM12.65 21.1172L13.3641 20.4172L3.01413 9.85858L2.3 10.5586L1.58587 11.2586L11.9359 21.8172L12.65 21.1172ZM2.3 10.5586H3.3V2.34636H2.3H1.3V10.5586H2.3ZM2.3 2.34636V3.34636H10.35V2.34636V1.34636H2.3V2.34636ZM10.35 2.34636L9.63587 3.04637L19.9859 13.605L20.7 12.905L21.4141 12.2049L11.0641 1.64634L10.35 2.34636ZM5.175 3.51953V4.51953C5.3139 4.51953 5.45136 4.56145 5.57012 4.6424L6.13336 3.81611L6.6966 2.98981C6.248 2.68403 5.71845 2.51953 5.175 2.51953V3.51953ZM6.13336 3.81611L5.57012 4.6424C5.68912 4.72352 5.78485 4.84094 5.84215 4.98207L6.76869 4.60587L7.69523 4.22966C7.49141 3.72768 7.14494 3.29543 6.6966 2.98981L6.13336 3.81611ZM6.76869 4.60587L5.84215 4.98207C5.89953 5.12337 5.91483 5.27996 5.88534 5.43123L6.86685 5.62261L7.84837 5.81399C7.95199 5.28254 7.89898 4.73148 7.69523 4.22966L6.76869 4.60587ZM6.86685 5.62261L5.88534 5.43123C5.85586 5.58242 5.78357 5.71861 5.68063 5.82363L6.39476 6.52364L7.10888 7.22366C7.48844 6.83646 7.74473 6.34553 7.84837 5.81399L6.86685 5.62261ZM6.39476 6.52364L5.68063 5.82363C5.5779 5.92843 5.44946 5.99747 5.31266 6.02523L5.51153 7.00525L5.7104 7.98528C6.24284 7.87724 6.72912 7.61107 7.10888 7.22366L6.39476 6.52364ZM5.51153 7.00525L5.31266 6.02523C5.176 6.05296 5.03412 6.03891 4.90411 5.98397L4.51487 6.90511L4.12563 7.82625C4.62602 8.03769 5.17783 8.09335 5.7104 7.98528L5.51153 7.00525ZM4.51487 6.90511L4.90411 5.98397C4.77387 5.92894 4.65931 5.83435 4.57725 5.70906L3.74072 6.25697L2.90418 6.80489C3.20121 7.25838 3.62547 7.6149 4.12563 7.82625L4.51487 6.90511ZM3.74072 6.25697L4.57725 5.70906C4.49505 5.58356 4.45 5.43396 4.45 5.2793H3.45H2.45C2.45 5.82074 2.60729 6.35161 2.90418 6.80489L3.74072 6.25697ZM3.45 5.2793H4.45C4.45 5.07143 4.53113 4.87599 4.66937 4.73497L3.95524 4.03496L3.24112 3.33494C2.73235 3.85396 2.45 4.55373 2.45 5.2793H3.45ZM3.95524 4.03496L4.66937 4.73497C4.80694 4.59463 4.98923 4.51953 5.175 4.51953V3.51953V2.51953C4.44577 2.51953 3.75054 2.81524 3.24112 3.33494L3.95524 4.03496Z" fill="#055D59" mask="url(#path-1-inside-1_295_1132)"/>
</svg>
