<svg width="19" height="21" viewBox="0 0 19 21" fill="none" xmlns="http://www.w3.org/2000/svg">
<path d="M13.3333 0.875C14.6042 0.875 15.8229 1.37983 16.7216 2.27845C17.6202 3.17706 18.125 4.39584 18.125 5.66667V13.3333C18.125 14.6042 17.6202 15.8229 16.7216 16.7216C15.8229 17.6202 14.6042 18.125 13.3333 18.125H5.66667C4.39584 18.125 3.17706 17.6202 2.27845 16.7216C1.37983 15.8229 0.875 14.6042 0.875 13.3333V5.66667C0.875 4.39584 1.37983 3.17706 2.27845 2.27845C3.17706 1.37983 4.39584 0.875 5.66667 0.875H13.3333ZM9.5 5.66667C8.48334 5.66667 7.50831 6.07053 6.78942 6.78942C6.07053 7.50831 5.66667 8.48334 5.66667 9.5C5.66667 10.5167 6.07053 11.4917 6.78942 12.2106C7.50831 12.9295 8.48334 13.3333 9.5 13.3333C10.5167 13.3333 11.4917 12.9295 12.2106 12.2106C12.9295 11.4917 13.3333 10.5167 13.3333 9.5C13.3333 8.48334 12.9295 7.50831 12.2106 6.78942C11.4917 6.07053 10.5167 5.66667 9.5 5.66667ZM9.5 7.58333C10.0083 7.58333 10.4958 7.78527 10.8553 8.14471C11.2147 8.50416 11.4167 8.99167 11.4167 9.5C11.4167 10.0083 11.2147 10.4958 10.8553 10.8553C10.4958 11.2147 10.0083 11.4167 9.5 11.4167C8.99167 11.4167 8.50416 11.2147 8.14471 10.8553C7.78527 10.4958 7.58333 10.0083 7.58333 9.5C7.58333 8.99167 7.78527 8.50416 8.14471 8.14471C8.50416 7.78527 8.99167 7.58333 9.5 7.58333ZM13.8125 4.22917C13.5583 4.22917 13.3146 4.33013 13.1349 4.50986C12.9551 4.68958 12.8542 4.93333 12.8542 5.1875C12.8542 5.44167 12.9551 5.68542 13.1349 5.86514C13.3146 6.04487 13.5583 6.14583 13.8125 6.14583C14.0667 6.14583 14.3104 6.04487 14.4901 5.86514C14.6699 5.68542 14.7708 5.44167 14.7708 5.1875C14.7708 4.93333 14.6699 4.68958 14.4901 4.50986C14.3104 4.33013 14.0667 4.22917 13.8125 4.22917Z" fill="#055D59"/>
</svg>
