<svg width="47" height="112" viewBox="0 0 47 112" fill="none" xmlns="http://www.w3.org/2000/svg">
<path d="M39.3242 37.8325L39.3242 31.9243C39.3242 29.9386 38.9987 27.8716 38.3477 25.7231C37.6641 23.5422 36.6875 21.4588 35.418 19.4731C34.1484 17.4549 32.6185 15.7134 30.8281 14.2485L25.7012 17.813C27.1986 19.9614 28.3542 22.175 29.168 24.4536C29.9818 26.6997 30.3887 29.1411 30.3887 31.7778L30.3887 37.8325L39.3242 37.8325Z" fill="black"/>
<path d="M18.3242 37.8325L18.3242 31.9243C18.3242 29.9386 17.9987 27.8716 17.3477 25.7231C16.6641 23.5422 15.6875 21.4588 14.418 19.4731C13.1484 17.4549 11.6185 15.7134 9.82813 14.2485L4.70117 17.813C6.19857 19.9614 7.35417 22.175 8.16797 24.4536C8.98177 26.6997 9.38867 29.1411 9.38867 31.7778L9.38867 37.8325L18.3242 37.8325Z" fill="black"/>
</svg>
