<svg width="12" height="15" viewBox="0 0 12 15" fill="none" xmlns="http://www.w3.org/2000/svg">
<path d="M6 14.9375L1.51838 9.65209C1.4561 9.57273 1.39448 9.49286 1.3335 9.4125C0.568348 8.40387 0.154829 7.17227 0.156254 5.90625C0.156254 4.35639 0.771933 2.87001 1.86785 1.77409C2.96376 0.678179 4.45014 0.0625 6 0.0625C7.54986 0.0625 9.03624 0.678179 10.1322 1.77409C11.2281 2.87001 11.8438 4.35639 11.8438 5.90625C11.845 7.17166 11.4317 8.40264 10.667 9.41091L10.6665 9.4125C10.6665 9.4125 10.5071 9.62181 10.4832 9.64997L6 14.9375ZM2.18191 8.77234C2.18191 8.77234 2.30569 8.93597 2.33385 8.97103L6 13.2949L9.67094 8.96519C9.69432 8.93597 9.81863 8.77128 9.81916 8.77075C10.4446 7.94686 10.7825 6.94062 10.7813 5.90625C10.7813 4.63818 10.2775 3.42205 9.38086 2.5254C8.4842 1.62874 7.26807 1.125 6 1.125C4.73194 1.125 3.51581 1.62874 2.61915 2.5254C1.72249 3.42205 1.21875 4.63818 1.21875 5.90625C1.21744 6.94128 1.5558 7.94815 2.18191 8.77234Z" fill="black"/>
</svg>
