<svg width="12" height="16" viewBox="0 0 12 16" fill="none" xmlns="http://www.w3.org/2000/svg">
<path d="M3.5 5C3.36739 5 3.24021 5.05268 3.14645 5.14645C3.05268 5.24021 3 5.36739 3 5.5C3 5.63261 3.05268 5.75979 3.14645 5.85355C3.24021 5.94732 3.36739 6 3.5 6H8.5C8.63261 6 8.75979 5.94732 8.85355 5.85355C8.94732 5.75979 9 5.63261 9 5.5C9 5.36739 8.94732 5.24021 8.85355 5.14645C8.75979 5.05268 8.63261 5 8.5 5H3.5ZM3 8.5C3 8.36739 3.05268 8.24021 3.14645 8.14645C3.24021 8.05268 3.36739 8 3.5 8H8.5C8.63261 8 8.75979 8.05268 8.85355 8.14645C8.94732 8.24021 9 8.36739 9 8.5C9 8.63261 8.94732 8.75979 8.85355 8.85355C8.75979 8.94732 8.63261 9 8.5 9H3.5C3.36739 9 3.24021 8.94732 3.14645 8.85355C3.05268 8.75979 3 8.63261 3 8.5ZM3.5 11C3.36739 11 3.24021 11.0527 3.14645 11.1464C3.05268 11.2402 3 11.3674 3 11.5C3 11.6326 3.05268 11.7598 3.14645 11.8536C3.24021 11.9473 3.36739 12 3.5 12H5.5C5.63261 12 5.75979 11.9473 5.85355 11.8536C5.94732 11.7598 6 11.6326 6 11.5C6 11.3674 5.94732 11.2402 5.85355 11.1464C5.75979 11.0527 5.63261 11 5.5 11H3.5ZM2.5 0C2.36739 0 2.24021 0.0526785 2.14645 0.146447C2.05268 0.240215 2 0.367392 2 0.5V1H1.5C1.10218 1 0.720644 1.15804 0.43934 1.43934C0.158035 1.72064 0 2.10218 0 2.5V14.5C0 14.8978 0.158035 15.2794 0.43934 15.5607C0.720644 15.842 1.10218 16 1.5 16H7.5C7.5657 16.0001 7.63079 15.9873 7.69153 15.9622C7.75227 15.9372 7.80748 15.9004 7.854 15.854L11.854 11.854C11.9004 11.8075 11.9372 11.7523 11.9622 11.6915C11.9873 11.6308 12.0001 11.5657 12 11.5V2.5C12 2.10218 11.842 1.72064 11.5607 1.43934C11.2794 1.15804 10.8978 1 10.5 1H10V0.5C10 0.367392 9.94732 0.240215 9.85355 0.146447C9.75979 0.0526785 9.63261 0 9.5 0C9.36739 0 9.24021 0.0526785 9.14645 0.146447C9.05268 0.240215 9 0.367392 9 0.5V1H6.5V0.5C6.5 0.367392 6.44732 0.240215 6.35355 0.146447C6.25979 0.0526785 6.13261 0 6 0C5.86739 0 5.74021 0.0526785 5.64645 0.146447C5.55268 0.240215 5.5 0.367392 5.5 0.5V1H3V0.5C3 0.367392 2.94732 0.240215 2.85355 0.146447C2.75979 0.0526785 2.63261 0 2.5 0ZM10.5 2C10.6326 2 10.7598 2.05268 10.8536 2.14645C10.9473 2.24021 11 2.36739 11 2.5V11H8.5C8.10218 11 7.72064 11.158 7.43934 11.4393C7.15804 11.7206 7 12.1022 7 12.5V15H1.5C1.36739 15 1.24021 14.9473 1.14645 14.8536C1.05268 14.7598 1 14.6326 1 14.5V2.5C1 2.36739 1.05268 2.24021 1.14645 2.14645C1.24021 2.05268 1.36739 2 1.5 2H10.5ZM10.293 12L8 14.293V12.5C8 12.3674 8.05268 12.2402 8.14645 12.1464C8.24021 12.0527 8.36739 12 8.5 12H10.293Z" fill="black"/>
</svg>
