<svg width="12" height="14" viewBox="0 0 12 14" fill="none" xmlns="http://www.w3.org/2000/svg">
<path d="M1.71392 4.25806C1.52292 3.00006 2.40992 1.87006 3.76492 1.45606C4.00538 1.38304 4.26461 1.40419 4.49005 1.51524C4.71548 1.62629 4.89025 1.81891 4.97892 2.05406L5.41392 3.21406C5.48394 3.40067 5.49661 3.60395 5.45028 3.79781C5.40395 3.99167 5.30075 4.16727 5.15392 4.30206L3.85992 5.48706C3.79605 5.54553 3.74847 5.61959 3.72182 5.70197C3.69518 5.78436 3.69039 5.87226 3.70792 5.95706L3.71992 6.00906L3.75092 6.13906C3.91225 6.77057 4.15743 7.37763 4.47992 7.94406C4.83204 8.54547 5.26847 9.09337 5.77592 9.57106L5.81592 9.60706C5.88052 9.6644 5.95887 9.70402 6.04334 9.72207C6.12782 9.74013 6.21552 9.73598 6.29792 9.71006L7.97092 9.18306C8.16105 9.12336 8.36468 9.12183 8.55569 9.17867C8.74669 9.23551 8.91636 9.34812 9.04292 9.50206L9.83492 10.4631C10.1649 10.8631 10.1249 11.4511 9.74592 11.8041C8.70892 12.7711 7.28292 12.9691 6.29092 12.1721C5.07443 11.1917 4.04927 9.99538 3.26692 8.64306C2.47691 7.29252 1.95063 5.80467 1.71392 4.25806ZM4.75592 6.02306L5.82792 5.03906C6.12175 4.76959 6.32835 4.41846 6.42118 4.03073C6.51402 3.643 6.48885 3.23638 6.34892 2.86306L5.91492 1.70306C5.73687 1.22983 5.38536 0.842117 4.9318 0.618678C4.47823 0.395239 3.95662 0.352826 3.47292 0.500056C1.78992 1.01506 0.438917 2.52406 0.724917 4.40906C0.924917 5.72506 1.38592 7.39906 2.40292 9.14706C3.24703 10.6052 4.35286 11.8951 5.66492 12.9521C7.15292 14.1471 9.13892 13.7391 10.4289 12.5371C10.798 12.1934 11.0221 11.7218 11.0553 11.2185C11.0886 10.7153 10.9286 10.2183 10.6079 9.82906L9.81592 8.86706C9.56256 8.55954 9.22311 8.3347 8.84112 8.22139C8.45912 8.10807 8.05199 8.11144 7.67192 8.23106L6.28292 8.66806C5.92426 8.29831 5.61012 7.88785 5.34692 7.44506C5.09293 6.99727 4.89479 6.52005 4.75692 6.02406" fill="black"/>
</svg>
