<svg width="23" height="23" viewBox="0 0 23 23" fill="none" xmlns="http://www.w3.org/2000/svg">
<path d="M8.66329 20.6425C9.58329 20.9204 10.5129 21.0833 11.5 21.0833C14.0416 21.0833 16.4792 20.0737 18.2764 18.2764C20.0736 16.4792 21.0833 14.0417 21.0833 11.5C21.0833 10.2415 20.8354 8.99532 20.3538 7.83261C19.8722 6.66991 19.1663 5.61345 18.2764 4.72356C17.3865 3.83366 16.33 3.12776 15.1673 2.64615C14.0046 2.16454 12.7585 1.91666 11.5 1.91666C10.2415 1.91666 8.99528 2.16454 7.83258 2.64615C6.66987 3.12776 5.61341 3.83366 4.72352 4.72356C2.9263 6.52078 1.91663 8.95834 1.91663 11.5C1.91663 15.5729 4.47538 19.0708 8.08829 20.4508C8.00204 19.7033 7.91579 18.4671 8.08829 17.6142L9.19038 12.88C9.19038 12.88 8.91246 12.3242 8.91246 11.4425C8.91246 10.12 9.73663 9.13291 10.6758 9.13291C11.5 9.13291 11.8833 9.73666 11.8833 10.5129C11.8833 11.3371 11.337 12.5158 11.0591 13.6467C10.8962 14.5858 11.5575 15.41 12.5158 15.41C14.2216 15.41 15.5441 13.5892 15.5441 11.0208C15.5441 8.72083 13.8958 7.14916 11.5287 7.14916C8.82621 7.14916 7.23538 9.16166 7.23538 11.2796C7.23538 12.1037 7.50371 12.9375 7.94454 13.4837C8.03079 13.5412 8.03079 13.6179 8.00204 13.7617L7.72413 14.8062C7.72413 14.9692 7.61871 15.0267 7.45579 14.9117C6.22913 14.375 5.51996 12.6308 5.51996 11.2221C5.51996 8.19375 7.66663 5.44333 11.8066 5.44333C15.1033 5.44333 17.6716 7.81041 17.6716 10.9537C17.6716 14.2504 15.6304 16.8954 12.7075 16.8954C11.7779 16.8954 10.8675 16.3971 10.5416 15.8125L9.89954 18.0837C9.67913 18.9079 9.07538 20.01 8.66329 20.6712V20.6425Z" fill="#055D59"/>
</svg>
