<svg width="20" height="21" viewBox="0 0 20 21" fill="none" xmlns="http://www.w3.org/2000/svg">
<path d="M10.0941 8.93468C10.473 8.93468 10.8483 8.86004 11.1984 8.71501C11.5485 8.56999 11.8667 8.35742 12.1346 8.08945C12.4026 7.82148 12.6152 7.50335 12.7602 7.15323C12.9052 6.80311 12.9799 6.42785 12.9799 6.04888C12.9799 5.66991 12.9052 5.29466 12.7602 4.94454C12.6152 4.59441 12.4026 4.27629 12.1346 4.00832C11.8667 3.74035 11.5485 3.52778 11.1984 3.38275C10.8483 3.23773 10.473 3.16309 10.0941 3.16309C9.32872 3.16309 8.59471 3.46712 8.05352 4.00832C7.51232 4.54951 7.20829 5.28352 7.20829 6.04888C7.20829 6.81424 7.51232 7.54826 8.05352 8.08945C8.59471 8.63064 9.32872 8.93468 10.0941 8.93468ZM2.67346 17.5096V18.0043H17.5147V17.5096C17.5147 15.6627 17.5147 14.7393 17.1552 14.0335C16.839 13.4129 16.3345 12.9084 15.714 12.5922C15.0082 12.2327 14.0847 12.2327 12.2378 12.2327H7.95035C6.10344 12.2327 5.17998 12.2327 4.4742 12.5922C3.85366 12.9084 3.34914 13.4129 3.03295 14.0335C2.67346 14.7393 2.67346 15.6627 2.67346 17.5096Z" stroke="white" stroke-width="2" stroke-linecap="round" stroke-linejoin="round"/>
</svg>
