<svg width="24" height="24" viewBox="0 0 24 24" fill="none" xmlns="http://www.w3.org/2000/svg">
<path d="M7.91 20.889C16.212 20.889 20.755 14.004 20.755 8.04401C20.755 7.85101 20.755 7.65701 20.746 7.46401C21.6305 6.82301 22.3937 6.02962 23 5.12101C22.174 5.48477 21.299 5.72501 20.403 5.83401C21.3474 5.26935 22.0545 4.38095 22.393 3.33401C21.5059 3.85938 20.5351 4.22841 19.523 4.42501C19.1012 3.97433 18.5912 3.61525 18.0247 3.3701C17.4582 3.12495 16.8473 2.99898 16.23 3.00001C15.0326 3.00107 13.8846 3.4772 13.0379 4.32388C12.1912 5.17057 11.7151 6.31861 11.714 7.51601C11.714 7.86801 11.758 8.21201 11.828 8.54601C10.0329 8.4558 8.27691 7.98915 6.67387 7.17634C5.07083 6.36354 3.65661 5.22275 2.523 3.82801C1.94682 4.82293 1.77088 5.99985 2.0309 7.11978C2.29091 8.23971 2.9674 9.21872 3.923 9.85801C3.20746 9.8319 2.5079 9.63912 1.88 9.29501V9.35601C1.8811 10.3981 2.24192 11.4078 2.90149 12.2146C3.56106 13.0214 4.47893 13.5758 5.5 13.784C5.11278 13.891 4.71273 13.9445 4.311 13.943C4.021 13.943 3.73933 13.9163 3.466 13.863C3.7532 14.7607 4.3144 15.5458 5.07077 16.1081C5.82714 16.6704 6.74066 16.9816 7.683 16.998C6.0843 18.2551 4.10877 18.9371 2.075 18.934C1.71577 18.9351 1.35679 18.9148 1 18.873C3.06401 20.1901 5.46156 20.8896 7.91 20.889Z" stroke="black" stroke-width="1.5" stroke-miterlimit="10" stroke-linejoin="round"/>
</svg>
