<svg width="19" height="19" viewBox="0 0 19 19" fill="none" xmlns="http://www.w3.org/2000/svg">
<mask id="path-1-inside-1_52_3485" fill="white">
<path d="M18.3235 9.11492L10.0735 0.864919C9.72977 0.523992 9.26514 0.332866 8.78101 0.333253H2.36434C1.87811 0.333253 1.41179 0.526407 1.06798 0.870223C0.724161 1.21404 0.531006 1.68036 0.531006 2.16659V8.58325C0.530815 8.82517 0.578505 9.06474 0.671327 9.28814C0.764149 9.51154 0.900269 9.71437 1.07184 9.88492L9.32184 18.1349C9.66558 18.4758 10.1302 18.667 10.6143 18.6666C11.0998 18.6645 11.5646 18.47 11.9068 18.1258L18.3235 11.7091C18.6678 11.3668 18.8623 10.902 18.8643 10.4166C18.8645 10.1747 18.8168 9.9351 18.724 9.7117C18.6312 9.4883 18.4951 9.28547 18.3235 9.11492ZM10.6143 16.8333L2.36434 8.58325V2.16659H8.78101L17.031 10.4166M4.65601 3.08325C4.92796 3.08325 5.1938 3.1639 5.41992 3.31498C5.64603 3.46607 5.82227 3.68081 5.92634 3.93206C6.03041 4.18331 6.05764 4.45978 6.00459 4.7265C5.95153 4.99323 5.82058 5.23823 5.62828 5.43052C5.43598 5.62282 5.19098 5.75378 4.92426 5.80683C4.65753 5.85989 4.38107 5.83266 4.12982 5.72859C3.87857 5.62452 3.66382 5.44828 3.51274 5.22216C3.36165 4.99604 3.28101 4.7302 3.28101 4.45825C3.28101 4.09358 3.42587 3.74384 3.68373 3.48598C3.9416 3.22812 4.29133 3.08325 4.65601 3.08325Z"/>
</mask>
<path d="M18.3235 9.11492L10.0735 0.864919C9.72977 0.523992 9.26514 0.332866 8.78101 0.333253H2.36434C1.87811 0.333253 1.41179 0.526407 1.06798 0.870223C0.724161 1.21404 0.531006 1.68036 0.531006 2.16659V8.58325C0.530815 8.82517 0.578505 9.06474 0.671327 9.28814C0.764149 9.51154 0.900269 9.71437 1.07184 9.88492L9.32184 18.1349C9.66558 18.4758 10.1302 18.667 10.6143 18.6666C11.0998 18.6645 11.5646 18.47 11.9068 18.1258L18.3235 11.7091C18.6678 11.3668 18.8623 10.902 18.8643 10.4166C18.8645 10.1747 18.8168 9.9351 18.724 9.7117C18.6312 9.4883 18.4951 9.28547 18.3235 9.11492ZM10.6143 16.8333L2.36434 8.58325V2.16659H8.78101L17.031 10.4166M4.65601 3.08325C4.92796 3.08325 5.1938 3.1639 5.41992 3.31498C5.64603 3.46607 5.82227 3.68081 5.92634 3.93206C6.03041 4.18331 6.05764 4.45978 6.00459 4.7265C5.95153 4.99323 5.82058 5.23823 5.62828 5.43052C5.43598 5.62282 5.19098 5.75378 4.92426 5.80683C4.65753 5.85989 4.38107 5.83266 4.12982 5.72859C3.87857 5.62452 3.66382 5.44828 3.51274 5.22216C3.36165 4.99604 3.28101 4.7302 3.28101 4.45825C3.28101 4.09358 3.42587 3.74384 3.68373 3.48598C3.9416 3.22812 4.29133 3.08325 4.65601 3.08325Z" fill="black"/>
<path d="M18.3235 9.11492L17.6164 9.82203L17.6185 9.82413L18.3235 9.11492ZM10.0735 0.864919L10.7806 0.157806L10.7777 0.154919L10.0735 0.864919ZM8.78101 0.333253V1.33325L8.78181 1.33325L8.78101 0.333253ZM2.36434 0.333253V-0.666747V0.333253ZM0.531006 2.16659H-0.468994H0.531006ZM0.531006 8.58325L1.53101 8.58405V8.58325H0.531006ZM1.07184 9.88492L1.77895 9.17781L1.77684 9.17571L1.07184 9.88492ZM9.32184 18.1349L8.61473 18.842L8.61764 18.8449L9.32184 18.1349ZM10.6143 18.6666L10.6151 19.6666L10.6186 19.6666L10.6143 18.6666ZM11.9068 18.1258L11.1997 17.4186L11.1976 17.4208L11.9068 18.1258ZM18.3235 11.7091L17.6185 10.9999L17.6164 11.002L18.3235 11.7091ZM18.8643 10.4166L19.8643 10.4208L19.8643 10.4174L18.8643 10.4166ZM2.36434 8.58325H1.36434V8.99747L1.65723 9.29036L2.36434 8.58325ZM2.36434 2.16659V1.16659H1.36434V2.16659H2.36434ZM8.78101 2.16659L9.48811 1.45948L9.19522 1.16659H8.78101V2.16659ZM4.65601 3.08325V4.08325V3.08325ZM3.28101 4.45825H2.28101H3.28101ZM18.3235 9.11492L19.0306 8.40781L10.7806 0.157812L10.0735 0.864919L9.3664 1.57203L17.6164 9.82203L18.3235 9.11492ZM10.0735 0.864919L10.7777 0.154919C10.2465 -0.371969 9.52841 -0.667344 8.78021 -0.666747L8.78101 0.333253L8.78181 1.33325C9.00187 1.33308 9.21306 1.41995 9.3693 1.57492L10.0735 0.864919ZM8.78101 0.333253V-0.666747H2.36434V0.333253V1.33325H8.78101V0.333253ZM2.36434 0.333253V-0.666747C1.61289 -0.666747 0.892224 -0.368237 0.360871 0.163117L1.06798 0.870223L1.77508 1.57733C1.93136 1.42105 2.14333 1.33325 2.36434 1.33325V0.333253ZM1.06798 0.870223L0.360871 0.163117C-0.170483 0.69447 -0.468994 1.41514 -0.468994 2.16659H0.531006H1.53101C1.53101 1.94557 1.6188 1.73361 1.77508 1.57733L1.06798 0.870223ZM0.531006 2.16659H-0.468994V8.58325H0.531006H1.53101V2.16659H0.531006ZM0.531006 8.58325L-0.468993 8.58246C-0.46929 8.95634 -0.395587 9.32657 -0.252134 9.67183L0.671327 9.28814L1.59479 8.90445C1.5526 8.8029 1.53092 8.69401 1.53101 8.58405L0.531006 8.58325ZM0.671327 9.28814L-0.252134 9.67183C-0.108682 10.0171 0.101684 10.3305 0.36684 10.5941L1.07184 9.88492L1.77684 9.17571C1.69885 9.09819 1.63698 9.006 1.59479 8.90445L0.671327 9.28814ZM1.07184 9.88492L0.364733 10.592L8.61473 18.842L9.32184 18.1349L10.0289 17.4278L1.77895 9.17781L1.07184 9.88492ZM9.32184 18.1349L8.61764 18.8449C9.14886 19.3718 9.86693 19.6672 10.6151 19.6666L10.6143 18.6666L10.6135 17.6666C10.3935 17.6668 10.1823 17.5799 10.026 17.4249L9.32184 18.1349ZM10.6143 18.6666L10.6186 19.6666C11.3688 19.6634 12.0871 19.3628 12.6161 18.8307L11.9068 18.1258L11.1976 17.4208C11.0421 17.5773 10.8308 17.6657 10.6101 17.6666L10.6143 18.6666ZM11.9068 18.1258L12.6139 18.8329L19.0306 12.4162L18.3235 11.7091L17.6164 11.002L11.1997 17.4186L11.9068 18.1258ZM18.3235 11.7091L19.0285 12.4183C19.5606 11.8894 19.8612 11.171 19.8643 10.4208L18.8643 10.4166L17.8643 10.4124C17.8634 10.633 17.775 10.8443 17.6185 10.9999L18.3235 11.7091ZM18.8643 10.4166L19.8643 10.4174C19.8646 10.0435 19.7909 9.67327 19.6475 9.32801L18.724 9.7117L17.8006 10.0954C17.8428 10.1969 17.8644 10.3058 17.8643 10.4158L18.8643 10.4166ZM18.724 9.7117L19.6475 9.32801C19.504 8.98275 19.2937 8.66929 19.0285 8.40571L18.3235 9.11492L17.6185 9.82413C17.6965 9.90165 17.7584 9.99384 17.8006 10.0954L18.724 9.7117ZM10.6143 16.8333L11.3214 16.1261L3.07145 7.87615L2.36434 8.58325L1.65723 9.29036L9.90723 17.5404L10.6143 16.8333ZM2.36434 8.58325H3.36434V2.16659H2.36434H1.36434V8.58325H2.36434ZM2.36434 2.16659V3.16659H8.78101V2.16659V1.16659H2.36434V2.16659ZM8.78101 2.16659L8.0739 2.87369L16.3239 11.1237L17.031 10.4166L17.7381 9.70948L9.48811 1.45948L8.78101 2.16659ZM4.65601 3.08325V4.08325C4.73017 4.08325 4.80268 4.10525 4.86435 4.14645L5.41992 3.31498L5.97549 2.48351C5.58492 2.22254 5.12574 2.08325 4.65601 2.08325V3.08325ZM5.41992 3.31498L4.86435 4.14645C4.92601 4.18766 4.97408 4.24622 5.00246 4.31475L5.92634 3.93206L6.85022 3.54938C6.67046 3.1154 6.36605 2.74448 5.97549 2.48351L5.41992 3.31498ZM5.92634 3.93206L5.00246 4.31475C5.03084 4.38327 5.03827 4.45867 5.0238 4.53141L6.00459 4.7265L6.98537 4.92159C7.07701 4.46089 7.02998 3.98335 6.85022 3.54938L5.92634 3.93206ZM6.00459 4.7265L5.0238 4.53141C5.00933 4.60415 4.97362 4.67097 4.92117 4.72342L5.62828 5.43052L6.33539 6.13763C6.66754 5.80548 6.89373 5.3823 6.98537 4.92159L6.00459 4.7265ZM5.62828 5.43052L4.92117 4.72342C4.86873 4.77586 4.80191 4.81158 4.72917 4.82605L4.92426 5.80683L5.11935 6.78762C5.58005 6.69598 6.00324 6.46978 6.33539 6.13763L5.62828 5.43052ZM4.92426 5.80683L4.72917 4.82605C4.65642 4.84052 4.58102 4.83309 4.5125 4.80471L4.12982 5.72859L3.74713 6.65247C4.18111 6.83222 4.65864 6.87926 5.11935 6.78762L4.92426 5.80683ZM4.12982 5.72859L4.5125 4.80471C4.44398 4.77632 4.38541 4.72826 4.34421 4.66659L3.51274 5.22216L2.68127 5.77773C2.94223 6.1683 3.31316 6.47271 3.74713 6.65247L4.12982 5.72859ZM3.51274 5.22216L4.34421 4.66659C4.303 4.60492 4.28101 4.53242 4.28101 4.45825H3.28101H2.28101C2.28101 4.92798 2.4203 5.38717 2.68127 5.77773L3.51274 5.22216ZM3.28101 4.45825H4.28101C4.28101 4.3588 4.32052 4.26341 4.39084 4.19309L3.68373 3.48598L2.97663 2.77887C2.53123 3.22427 2.28101 3.82836 2.28101 4.45825H3.28101ZM3.68373 3.48598L4.39084 4.19309C4.46117 4.12276 4.55655 4.08325 4.65601 4.08325V3.08325V2.08325C4.02612 2.08325 3.42203 2.33347 2.97663 2.77887L3.68373 3.48598Z" fill="black" fill-opacity="0.6" mask="url(#path-1-inside-1_52_3485)"/>
</svg>
