<svg width="7" height="11" viewBox="0 0 7 11" fill="none" xmlns="http://www.w3.org/2000/svg">
<path d="M5.56874 0.542774C5.63102 0.578233 5.67922 0.633387 5.70545 0.699226C5.73169 0.765064 5.73442 0.837695 5.71319 0.905253L4.56714 4.56254H6.6817C6.74384 4.56252 6.80463 4.58037 6.85656 4.61389C6.9085 4.6474 6.9493 4.69512 6.97393 4.75115C6.99857 4.80719 7.00595 4.86907 6.99518 4.92918C6.98442 4.98929 6.95596 5.04498 6.91333 5.08939L1.82261 10.4016C1.77335 10.453 1.7078 10.4866 1.63665 10.4967C1.5655 10.5069 1.49294 10.4931 1.43079 10.4576C1.36865 10.4221 1.32058 10.3669 1.29444 10.3012C1.26829 10.2354 1.2656 10.1628 1.28681 10.0954L2.43286 6.43744H0.318297C0.256155 6.43746 0.195366 6.41961 0.143435 6.3861C0.0915027 6.35258 0.0507014 6.30486 0.0260674 6.24883C0.00143341 6.1928 -0.00595484 6.13091 0.00481465 6.0708C0.0155841 6.01069 0.0440398 5.955 0.0866692 5.91059L5.17739 0.598395C5.22659 0.547023 5.29204 0.513506 5.36309 0.503294C5.43414 0.493082 5.50662 0.506776 5.56874 0.542149V0.542774ZM1.05454 5.81247H2.86366C2.91345 5.81246 2.96255 5.82393 3.00701 5.84596C3.05147 5.86798 3.09004 5.89994 3.11963 5.93927C3.14921 5.97861 3.16899 6.02421 3.17736 6.07242C3.18573 6.12062 3.18247 6.17008 3.16783 6.21683L2.29732 8.99354L5.94482 5.18751H4.13634C4.08655 5.18752 4.03745 5.17605 3.99299 5.15403C3.94853 5.132 3.90996 5.10004 3.88037 5.06071C3.85078 5.02138 3.83101 4.97577 3.82264 4.92757C3.81427 4.87936 3.81753 4.8299 3.83217 4.78316L4.70268 2.00644L1.05454 5.81247Z" fill="#505050"/>
</svg>
