<svg width="20" height="20" viewBox="0 0 20 20" fill="none" xmlns="http://www.w3.org/2000/svg">
<path d="M9.96319 17.3335C11.957 17.3335 13.8692 16.5609 15.2791 15.1856C16.689 13.8103 17.481 11.9451 17.481 10.0002C17.481 8.05524 16.689 6.18998 15.2791 4.81471C13.8692 3.43945 11.957 2.66683 9.96319 2.66683C7.96934 2.66683 6.05716 3.43945 4.64729 4.81471C3.23743 6.18998 2.44537 8.05524 2.44537 10.0002C2.44537 11.9451 3.23743 13.8103 4.64729 15.1856C6.05716 16.5609 7.96934 17.3335 9.96319 17.3335ZM9.96319 0.833496C11.1973 0.833496 12.4192 1.0706 13.5594 1.53127C14.6995 1.99194 15.7355 2.66715 16.6081 3.51835C17.4807 4.36955 18.1729 5.38008 18.6451 6.49223C19.1174 7.60438 19.3605 8.79638 19.3605 10.0002C19.3605 12.4313 18.3704 14.7629 16.6081 16.482C14.8457 18.2011 12.4555 19.1668 9.96319 19.1668C4.7665 19.1668 0.565918 15.0418 0.565918 10.0002C0.565918 7.56901 1.55599 5.23743 3.31832 3.51835C5.08065 1.79927 7.47088 0.833496 9.96319 0.833496ZM10.4331 5.41683V10.2293L14.6618 12.6768L13.957 13.8043L9.02347 10.9168V5.41683H10.4331Z" fill="black" fill-opacity="0.6"/>
</svg>
