<svg width="46" height="112" viewBox="0 0 46 112" fill="none" xmlns="http://www.w3.org/2000/svg">
<path d="M6.8252 37.3826V31.4744C6.8252 29.4887 7.15072 27.4216 7.80176 25.2732C8.48535 23.0922 9.46191 21.0089 10.7314 19.0232C12.001 17.005 13.5309 15.2634 15.3213 13.7986L20.4482 17.363C18.9508 19.5115 17.7952 21.725 16.9814 24.0037C16.1676 26.2498 15.7607 28.6912 15.7607 31.3279V37.3826H6.8252Z" fill="black"/>
<path d="M27.8252 37.3826V31.4744C27.8252 29.4887 28.1507 27.4216 28.8018 25.2732C29.4854 23.0922 30.4619 21.0089 31.7314 19.0232C33.001 17.005 34.5309 15.2634 36.3213 13.7986L41.4482 17.363C39.9508 19.5115 38.7952 21.725 37.9814 24.0037C37.1676 26.2498 36.7607 28.6912 36.7607 31.3279V37.3826H27.8252Z" fill="black"/>
</svg>
