<svg width="46" height="47" viewBox="0 0 46 47" fill="none" xmlns="http://www.w3.org/2000/svg">
<path d="M1.5 27.5V2H15L23.5 9L30 2H44.5V29.5C44.5 29.5 41.5751 37.678 37.5 41C33.0488 44.6286 29.2425 45.4421 23.5 45.5C17.5713 45.5598 13.6144 44.723 9 41C4.30622 37.2129 1.5 27.5 1.5 27.5Z" fill="white"/>
<path d="M1.5 2V27.5C1.5 27.5 4.30622 37.2129 9 41C13.6144 44.723 17.5713 45.5598 23.5 45.5C29.2425 45.4421 33.0488 44.6286 37.5 41C41.5751 37.678 44.5 29.5 44.5 29.5V2H30L23.5 9L15 2H0" stroke="white" stroke-width="3"/>
</svg>
