<svg width="49" height="63" viewBox="0 0 49 63" fill="none" xmlns="http://www.w3.org/2000/svg">
<path fill-rule="evenodd" clip-rule="evenodd" d="M19.3438 2.09339C19.8208 1.44443 20.4439 0.916802 21.1625 0.553144C21.8812 0.189486 22.6753 0 23.4808 0C24.2862 0 25.0804 0.189486 25.799 0.553144C26.5177 0.916802 27.1407 1.44443 27.6178 2.09339C28.5297 3.32817 29.7613 4.29068 31.1799 4.87722C32.5984 5.46376 34.1501 5.65208 35.6678 5.4219C36.4666 5.30031 37.2829 5.36821 38.0507 5.62012C38.8185 5.87203 39.5163 6.3009 40.0879 6.87212C40.6595 7.44335 41.0888 8.14093 41.3411 8.90858C41.5935 9.67623 41.6619 10.4925 41.5408 11.2914C41.3106 12.8091 41.4989 14.3608 42.0855 15.7793C42.672 17.1979 43.6345 18.4295 44.8693 19.3414C45.5189 19.8184 46.0472 20.4416 46.4112 21.1606C46.7753 21.8796 46.9651 22.6742 46.9651 23.4801C46.9651 24.2861 46.7753 25.0807 46.4112 25.7997C46.0472 26.5187 45.5189 27.1419 44.8693 27.6189C43.6351 28.5312 42.6733 29.763 42.0874 31.1815C41.5015 32.6001 41.3137 34.1516 41.5443 35.6689C41.6652 36.468 41.5968 37.2843 41.3444 38.052C41.092 38.8198 40.6628 39.5175 40.0913 40.089C39.5199 40.6604 38.8222 41.0896 38.0544 41.342C37.2867 41.5944 36.4703 41.6628 35.6713 41.5419C34.1536 41.3117 32.6019 41.5 31.1834 42.0866C29.7648 42.6731 28.5332 43.6356 27.6213 44.8704C27.1443 45.52 26.5211 46.0483 25.8021 46.4124C25.0831 46.7765 24.2885 46.9662 23.4825 46.9662C22.6766 46.9662 21.882 46.7765 21.163 46.4124C20.444 46.0483 19.8207 45.52 19.3438 44.8704C18.4318 43.6356 17.2002 42.6731 15.7817 42.0866C14.3632 41.5 12.8114 41.3117 11.2938 41.5419C10.4949 41.6635 9.67864 41.5956 8.91084 41.3437C8.14304 41.0918 7.4452 40.6629 6.87364 40.0917C6.30208 39.5204 5.87279 38.8229 5.62042 38.0552C5.36805 37.2876 5.29966 36.4713 5.42078 35.6724C5.65135 34.1551 5.46356 32.6036 4.87765 31.185C4.29174 29.7665 3.32991 28.5347 2.09578 27.6224C1.44614 27.1454 0.917902 26.5222 0.553811 25.8032C0.189721 25.0842 0 24.2896 0 23.4836C0 22.6777 0.189721 21.8831 0.553811 21.1641C0.917902 20.4451 1.44614 19.8219 2.09578 19.3449C3.32991 18.4325 4.29174 17.2008 4.87765 15.7822C5.46356 14.3637 5.65135 12.8122 5.42078 11.2949C5.29905 10.4957 5.36698 9.67906 5.61907 8.91094C5.87117 8.14283 6.30037 7.44477 6.87201 6.87313C7.44365 6.30149 8.14171 5.87229 8.90983 5.62019C9.67794 5.3681 10.4946 5.30017 11.2938 5.4219C12.8114 5.65208 14.3632 5.46376 15.7817 4.87722C17.2002 4.29068 18.4318 3.32817 19.3438 2.09339ZM34.1243 23.4819C34.1243 30.2929 30.2918 34.1219 23.4843 34.1219C16.6663 34.1219 12.8408 30.2964 12.8408 23.4819C12.8408 16.6674 16.6698 12.8419 23.4808 12.8419C30.2918 12.8419 34.1208 16.6674 34.1208 23.4819" fill="white"/>
<path d="M9.48047 41.4819L2.98047 53.9819H10.9805L14.4805 59.9819L21.9805 47.4819L26.4805 45.9819L32.9805 57.4819L37.9805 50.9819L45.9805 51.9819L39.9805 40.4819" stroke="white" stroke-width="3"/>
<ellipse cx="23.4805" cy="23.9819" rx="11.5" ry="12" fill="white"/>
<path d="M16.9805 22.6856L23.543 30.9819L31.4805 17.4819" stroke="white" stroke-width="3"/>
</svg>
