<svg width="57" height="57" viewBox="0 0 57 57" fill="none" xmlns="http://www.w3.org/2000/svg">
<path d="M18.2266 18.3514L27.671 27.8514M35.7266 36.3514L27.671 27.8514M27.671 27.8514L38.2266 18.3514L18.2266 36.3514M9.22659 28.8514C10.4599 35.6663 1.01173 38.6414 2.72659 45.3514C3.80012 49.5519 5.26654 52.5865 9.22659 54.3514C12.4369 55.7821 14.8154 55.1983 18.2266 54.3514C23.0096 53.1639 23.8202 47.8143 28.7266 47.3514C34.4671 46.8098 41.7266 54.3514 41.7266 54.3514C41.7266 54.3514 47.8816 54.558 50.7266 52.3514C54.1939 49.6621 54.7397 46.2393 54.7266 41.8514C54.7094 36.0854 47.185 34.5919 47.7266 28.8514C48.1895 23.945 53.7273 23.1772 54.7266 18.3514C55.6899 13.6991 55.9648 9.82782 52.7266 6.35139C50.2798 3.72456 47.7915 3.27359 44.2266 2.85139C37.7083 2.07941 35.2759 9.788 28.7266 9.35139C23.0631 8.97382 21.3208 3.812 15.7266 2.85139C12.455 2.2896 10.1371 1.25528 7.22659 2.85139C4.51955 4.33589 3.70653 6.42367 2.72659 9.35139C1.61101 12.6844 1.91657 14.9313 2.72659 18.3514C3.83804 23.0442 8.36777 24.1059 9.22659 28.8514Z" stroke="white" stroke-width="3"/>
</svg>
