<svg width="55" height="68" viewBox="0 0 55 68" fill="none" xmlns="http://www.w3.org/2000/svg">
<path d="M15 9.5H7C3.1602 11.0275 2.25005 12.4211 2 15.5V61C3.14174 63.5374 4.23352 64.7432 7 66.5H46.5C49.6324 65.2425 51.1523 63.9856 53.5 61V15.5C52.5292 12.7305 51.3765 11.5015 49 9.5H40.5C38.3755 5.8165 36.9149 4.22184 34 2H21C18.2473 3.78946 16.8737 5.36462 15 9.5Z" stroke="white" stroke-width="3"/>
<rect x="9.5" y="22.5" width="37" height="37" stroke="white" stroke-width="3"/>
<path d="M28.0416 56C27.5694 56 27.1739 55.84 26.855 55.52C26.5361 55.2 26.3761 54.8045 26.375 54.3333V52.4167C25.125 52.1389 24.0277 51.6528 23.0833 50.9583C22.1389 50.2639 21.375 49.2917 20.7916 48.0417C20.5972 47.6528 20.5905 47.2433 20.7716 46.8133C20.9527 46.3833 21.2789 46.0706 21.75 45.875C22.1389 45.7083 22.5416 45.7156 22.9583 45.8967C23.375 46.0778 23.6944 46.3761 23.9166 46.7917C24.3889 47.625 24.9861 48.2572 25.7083 48.6883C26.4305 49.1195 27.3194 49.3345 28.375 49.3333C29.5139 49.3333 30.4789 49.0767 31.27 48.5633C32.0611 48.05 32.4572 47.2511 32.4583 46.1667C32.4583 45.1945 32.1527 44.4239 31.5416 43.855C30.9305 43.2861 29.5139 42.64 27.2916 41.9167C24.9027 41.1667 23.2639 40.2711 22.375 39.23C21.4861 38.1889 21.0416 36.9178 21.0416 35.4167C21.0416 33.6111 21.625 32.2083 22.7916 31.2083C23.9583 30.2083 25.1527 29.6389 26.375 29.5V27.6667C26.375 27.1945 26.535 26.7983 26.855 26.4783C27.175 26.1583 27.5705 25.9989 28.0416 26C28.5127 26.0011 28.9089 26.1611 29.23 26.48C29.5511 26.7989 29.7105 27.1945 29.7083 27.6667V29.5C30.7639 29.6667 31.6805 30.0072 32.4583 30.5217C33.2361 31.0361 33.875 31.6678 34.375 32.4167C34.625 32.7778 34.6739 33.1806 34.5216 33.625C34.3694 34.0695 34.0566 34.3889 33.5833 34.5833C33.1944 34.75 32.7916 34.7572 32.375 34.605C31.9583 34.4528 31.5694 34.1817 31.2083 33.7917C30.8472 33.4017 30.4233 33.1033 29.9366 32.8967C29.45 32.69 28.8461 32.5856 28.125 32.5833C26.9027 32.5833 25.9722 32.8545 25.3333 33.3967C24.6944 33.9389 24.375 34.6122 24.375 35.4167C24.375 36.3333 24.7916 37.0556 25.625 37.5833C26.4583 38.1111 27.9027 38.6667 29.9583 39.25C31.875 39.8056 33.3266 40.6878 34.3133 41.8967C35.3 43.1056 35.7927 44.5011 35.7916 46.0833C35.7916 48.0556 35.2083 49.5556 34.0416 50.5833C32.875 51.6111 31.4305 52.25 29.7083 52.5V54.3333C29.7083 54.8056 29.5483 55.2017 29.2283 55.5217C28.9083 55.8417 28.5127 56.0011 28.0416 56Z" fill="white"/>
</svg>
