<svg width="69" height="71" viewBox="0 0 69 71" fill="none" xmlns="http://www.w3.org/2000/svg">
<path fill-rule="evenodd" clip-rule="evenodd" d="M61.8036 28.2986C63.4136 33.1603 63.3676 38.41 63.2554 42.9266L63.2497 43.1969C63.2306 43.9594 62.9094 44.6831 62.3568 45.2088C61.8041 45.7345 61.0653 46.0191 60.3028 46C59.5403 45.981 58.8166 45.6598 58.2909 45.1071C57.7652 44.5545 57.4806 43.8156 57.4997 43.0532L57.5083 42.7858C57.6204 38.1944 57.5974 33.8963 56.3439 30.107C55.3949 27.2508 53.8946 24.6085 51.9279 22.3301C47.9335 17.7261 42.2799 14.8893 36.2013 14.439C30.1227 13.9887 24.1128 15.9615 19.4836 19.9266C17.1971 21.8837 15.3202 24.2735 13.9609 26.9586C12.6016 29.6437 11.7866 32.5711 11.5629 35.5724C11.4134 37.5619 11.4479 38.7349 11.4997 40.3966C11.5313 41.4661 11.5716 42.7398 11.5716 44.5625C11.5716 45.325 11.2687 46.0563 10.7295 46.5955C10.1903 47.1346 9.45905 47.4375 8.69655 47.4375C7.93406 47.4375 7.20279 47.1346 6.66362 46.5955C6.12446 46.0563 5.82155 45.325 5.82155 44.5625C5.82155 43.1509 5.78993 41.9923 5.7583 40.9256C5.70655 39.0051 5.66055 37.3923 5.83018 35.1469C6.11016 31.3916 7.12956 27.7287 8.82979 24.3687C10.53 21.0088 12.8775 18.0179 15.7374 15.5681C21.5166 10.6013 29.0312 8.13189 36.6301 8.70265C44.2254 9.26788 51.2886 12.815 56.2778 18.5696C58.7391 21.4195 60.6165 24.7251 61.8036 28.2986Z" fill="white"/>
<path fill-rule="evenodd" clip-rule="evenodd" d="M26.0334 45.1346L26.8211 54.1334C26.9155 55.2081 26.7972 56.2909 26.473 57.3199C26.1488 58.3489 25.6251 59.304 24.9318 60.1306C24.2384 60.9571 23.389 61.639 22.4321 62.1372C21.4752 62.6355 20.4295 62.9403 19.3547 63.0344C16.2079 63.3095 13.0808 62.3233 10.661 60.2928C8.24128 58.2624 6.72717 55.3539 6.45173 52.2071L5.73298 44.0249C5.6343 42.8964 5.7589 41.7595 6.09966 40.6791C6.44042 39.5987 6.99067 38.5961 7.71899 37.7284C8.44731 36.8607 9.33942 36.145 10.3444 35.6222C11.3493 35.0993 12.4474 34.7795 13.576 34.6811C16.6141 34.4156 19.6333 35.3678 21.9694 37.3282C24.3056 39.2885 25.7674 42.0966 26.0334 45.1346ZM14.0762 40.4081C13.3168 40.4746 12.615 40.84 12.1249 41.4239C11.6348 42.0078 11.3967 42.7624 11.4629 43.5218L12.1816 51.7069C12.3241 53.3338 13.1067 54.8376 14.3574 55.8877C15.6081 56.9379 17.2246 57.4485 18.8516 57.3074C19.1743 57.2795 19.4884 57.1883 19.7758 57.039C20.0633 56.8896 20.3184 56.685 20.5267 56.437C20.735 56.1889 20.8923 55.9022 20.9897 55.5932C21.087 55.2843 21.1225 54.9592 21.0941 54.6365L20.3064 45.6378C20.2409 44.8852 20.0278 44.153 19.6792 43.4828C19.3306 42.8127 18.8534 42.2178 18.2748 41.7321C17.6963 41.2465 17.0277 40.8796 16.3073 40.6524C15.5869 40.4252 14.8287 40.3422 14.0762 40.4081ZM62.5459 52.6154L63.3336 43.6166C63.428 42.5419 63.3097 41.4591 62.9855 40.4301C62.6613 39.4011 62.1376 38.4461 61.4443 37.6195C60.7509 36.7929 59.9015 36.111 58.9446 35.6128C57.9877 35.1145 56.942 34.8097 55.8672 34.7156C52.7204 34.4406 49.5933 35.4267 47.1735 37.4572C44.7538 39.4877 43.2397 42.3961 42.9642 45.5429L42.2455 53.7251C42.1468 54.8537 42.2714 55.9906 42.6122 57.0709C42.9529 58.1513 43.5032 59.154 44.2315 60.0216C44.9598 60.8893 45.8519 61.605 46.8569 62.1279C47.8618 62.6507 48.9599 62.9705 50.0885 63.0689C53.1266 63.3344 56.1458 62.3823 58.4819 60.4219C60.8181 58.4615 62.2799 55.6535 62.5459 52.6154ZM50.5887 57.3419C49.8294 57.2754 49.1275 56.9101 48.6374 56.3262C48.1473 55.7423 47.9092 54.9877 47.9754 54.2283L48.6941 46.0431C48.8366 44.4162 49.6192 42.9125 50.8699 41.8623C52.1206 40.8122 53.7371 40.3015 55.3641 40.4426C56.015 40.5011 56.6163 40.8149 57.0365 41.3154C57.4567 41.8159 57.6617 42.4623 57.6066 43.1135L56.8189 52.1123C56.7534 52.8648 56.5403 53.5971 56.1917 54.2672C55.8431 54.9374 55.3659 55.5323 54.7873 56.0179C54.2088 56.5036 53.5402 56.8705 52.8198 57.0976C52.0993 57.3248 51.3412 57.4078 50.5887 57.3419Z" fill="white"/>
<path d="M55 59C55 59 49 69 36 69" stroke="white" stroke-width="3.7"/>
</svg>
