<svg width="28" height="58" viewBox="0 0 28 58" fill="none" xmlns="http://www.w3.org/2000/svg">
<path d="M0.35 2.7C4.7 1.4 8.65 0.749997 12.2 0.749997C16.55 0.749997 20.1 1.825 22.85 3.975C26 6.475 27.575 10.175 27.575 15.075C27.575 19.975 25.35 24.95 20.9 30C19.9 31.15 19.025 32.2 18.275 33.15C17.575 34.05 17.025 34.85 16.625 35.55C15.625 37.45 15.125 39.55 15.125 41.85V44.4H7.85V41.85C7.85 37.15 9.575 32.65 13.025 28.35C14.375 26.65 15.425 25.3 16.175 24.3C16.975 23.25 17.5 22.55 17.75 22.2C19.15 19.9 19.85 17.525 19.85 15.075C19.85 12.925 19.1 11.25 17.6 10.05C16.2 8.95 14.3 8.4 11.9 8.4C9 8.4 5.275 9.15 0.725001 10.65L0.35 2.7ZM15.875 57.975H7.175V49.725H15.875V57.975Z" fill="white"/>
</svg>
